<?xml version="1.0" standalone="no"?>
<!DOCTYPE svg PUBLIC "-//W3C//DTD SVG 20010904//EN"
 "http://www.w3.org/TR/2001/REC-SVG-20010904/DTD/svg10.dtd">
<svg version="1.0" xmlns="http://www.w3.org/2000/svg"
 width="86.000000pt" height="89.000000pt" viewBox="0 0 86.000000 89.000000"
 preserveAspectRatio="xMidYMid meet">

<g transform="translate(0.000000,89.000000) scale(0.100000,-0.100000)"
fill="#007BFF" stroke="none">
<path d="M303 802 c-29 -9 -62 -25 -72 -34 -11 -9 -21 -14 -24 -12 -11 12
-123 -120 -132 -156 -1 -3 -7 -18 -15 -35 -24 -57 -24 -163 -1 -243 35 -117
143 -219 266 -251 105 -28 235 -3 325 62 64 45 87 73 123 147 28 57 32 76 33
155 2 99 -9 140 -60 215 -43 64 -82 97 -156 133 -83 39 -204 47 -287 19z m202
-159 c47 -31 85 -60 85 -64 0 -9 -142 -117 -166 -126 -10 -4 -14 3 -14 26 0
23 -5 31 -17 31 -22 0 -85 -37 -96 -56 -17 -30 -30 -14 -25 31 7 56 48 112 99
134 34 14 39 20 39 49 0 17 2 32 5 32 3 0 43 -25 90 -57z m83 -268 c-7 -56
-48 -112 -99 -134 -34 -14 -39 -20 -39 -48 0 -18 -3 -33 -6 -33 -17 0 -174
114 -171 124 4 12 157 125 170 126 4 0 7 -13 7 -30 0 -20 5 -30 15 -30 23 0
67 24 89 49 30 33 39 26 34 -24z"/>
<path d="M430 637 c0 -18 -7 -27 -25 -31 -31 -8 -91 -60 -98 -85 -4 -19 -4
-19 37 0 60 27 86 25 86 -7 0 -25 0 -25 61 18 l61 42 -30 26 c-17 14 -44 33
-61 43 l-31 18 0 -24z"/>
<path d="M366 328 l-59 -42 31 -25 c17 -14 44 -34 61 -44 l31 -18 0 24 c0 18
7 27 25 31 32 8 91 60 98 86 5 19 5 19 -34 0 -55 -28 -87 -26 -91 5 l-3 25
-59 -42z"/>
</g>
</svg>