<svg width="755" height="217" viewBox="0 0 755 217" fill="none" xmlns="http://www.w3.org/2000/svg">
<path d="M121.784 104.328H118.84C118.755 109.619 118.669 114.952 118.584 120.328C118.584 125.704 118.584 131.123 118.584 136.584V141.704H122.296C127.928 141.704 132.152 139.912 134.968 136.328C137.784 132.659 139.192 127.923 139.192 122.12C139.192 116.232 137.656 111.795 134.584 108.808C131.597 105.821 127.331 104.328 121.784 104.328ZM87.224 103.816V96.904H122.04C130.915 96.904 138.083 97.9707 143.544 100.104C149.005 102.152 152.973 105.096 155.448 108.936C158.008 112.691 159.288 117.128 159.288 122.248C159.288 127.112 158.093 131.592 155.704 135.688C153.4 139.699 149.56 142.899 144.184 145.288C138.808 147.677 131.469 148.872 122.168 148.872H118.584C118.584 152.541 118.584 156.424 118.584 160.52C118.669 164.531 118.755 168.669 118.84 172.936L130.232 174.088V181H87.224V174.088L96.824 173.064C96.9947 167.859 97.08 162.611 97.08 157.32C97.08 152.029 97.08 146.696 97.08 141.32V136.584C97.08 131.293 97.08 126.003 97.08 120.712C97.08 115.336 96.9947 110.045 96.824 104.84L87.224 103.816ZM164.581 181V174.984L171.621 173.576C171.706 170.419 171.749 167.048 171.749 163.464C171.749 159.88 171.749 156.765 171.749 154.12V146.568C171.749 144.179 171.706 142.216 171.621 140.68C171.621 139.144 171.578 137.736 171.493 136.456C171.493 135.091 171.45 133.555 171.365 131.848L163.557 130.696V125.704L188.773 117.128L191.077 118.536L192.229 133.64C194.021 128.179 196.538 124.083 199.781 121.352C203.024 118.536 206.224 117.128 209.381 117.128C212.197 117.128 214.629 117.939 216.677 119.56C218.725 121.096 220.005 123.443 220.517 126.6C220.432 129.928 219.536 132.531 217.829 134.408C216.122 136.2 213.989 137.096 211.429 137.096C207.845 137.096 204.56 135.091 201.573 131.08L200.805 130.056C198.928 131.848 197.178 134.109 195.557 136.84C194.021 139.571 192.912 142.429 192.229 145.416V154.12C192.229 156.765 192.229 159.795 192.229 163.208C192.229 166.621 192.272 169.821 192.357 172.808L202.469 174.984V181H164.581ZM253.828 123.784C251.439 123.784 249.22 125.277 247.172 128.264C245.209 131.165 244.1 136.541 243.844 144.392H254.724C257.796 144.392 259.844 143.795 260.868 142.6C261.977 141.32 262.532 139.229 262.532 136.328C262.532 132.061 261.679 128.904 259.972 126.856C258.265 124.808 256.217 123.784 253.828 123.784ZM254.084 182.92C247.855 182.92 242.351 181.64 237.572 179.08C232.793 176.435 229.039 172.68 226.308 167.816C223.577 162.867 222.212 156.979 222.212 150.152C222.212 142.984 223.791 136.968 226.948 132.104C230.191 127.155 234.329 123.443 239.364 120.968C244.399 118.408 249.647 117.128 255.108 117.128C260.74 117.128 265.519 118.323 269.444 120.712C273.455 123.101 276.484 126.344 278.532 130.44C280.58 134.451 281.604 139.059 281.604 144.264C281.604 146.739 281.348 149 280.836 151.048H243.844C244.271 157.789 246.105 162.781 249.348 166.024C252.676 169.181 256.559 170.76 260.996 170.76C264.495 170.76 267.481 170.12 269.956 168.84C272.431 167.475 274.607 165.811 276.484 163.848L280.964 167.944C278.319 172.979 274.735 176.733 270.212 179.208C265.689 181.683 260.313 182.92 254.084 182.92ZM288.834 181V174.984L295.746 173.448C295.831 170.376 295.874 167.048 295.874 163.464C295.874 159.88 295.874 156.765 295.874 154.12V146.696C295.874 143.197 295.831 140.509 295.746 138.632C295.746 136.669 295.661 134.408 295.49 131.848L287.682 130.696V125.704L312.898 117.128L315.202 118.536L315.97 127.752C318.957 124.253 322.071 121.608 325.314 119.816C328.642 118.024 332.183 117.128 335.938 117.128C344.727 117.128 350.402 120.925 352.962 128.52C356.461 124.253 359.831 121.309 363.074 119.688C366.402 117.981 369.901 117.128 373.57 117.128C380.055 117.128 384.791 119.005 387.778 122.76C390.765 126.515 392.258 132.189 392.258 139.784V154.12C392.258 156.851 392.258 160.008 392.258 163.592C392.258 167.176 392.301 170.504 392.386 173.576L398.786 174.984V181H365.762V174.984L372.034 173.448C372.119 170.376 372.162 167.091 372.162 163.592C372.162 160.008 372.162 156.851 372.162 154.12V141.704C372.162 136.925 371.607 133.725 370.498 132.104C369.389 130.397 367.511 129.544 364.866 129.544C361.282 129.544 357.698 131.08 354.114 134.152C354.199 134.92 354.242 135.731 354.242 136.584C354.327 137.352 354.37 138.205 354.37 139.144V154.12C354.37 156.936 354.37 160.136 354.37 163.72C354.37 167.219 354.413 170.547 354.498 173.704L360.514 174.984V181H327.49V174.984L334.146 173.448C334.231 170.376 334.274 167.091 334.274 163.592C334.274 160.008 334.274 156.851 334.274 154.12V141.832C334.274 137.309 333.719 134.152 332.61 132.36C331.586 130.483 329.666 129.544 326.85 129.544C325.058 129.544 323.266 129.971 321.474 130.824C319.682 131.677 317.975 132.787 316.354 134.152V154.12C316.354 156.765 316.354 159.923 316.354 163.592C316.354 167.176 316.397 170.547 316.482 173.704L322.498 174.984V181H288.834ZM405.215 181V174.984L412.127 173.448C412.212 170.376 412.255 167.048 412.255 163.464C412.255 159.88 412.255 156.765 412.255 154.12V147.976C412.255 144.477 412.212 141.576 412.127 139.272C412.127 136.883 412.042 134.408 411.871 131.848L403.935 130.696V125.704L430.815 117.128L432.991 118.536L432.607 137.096V154.12C432.607 156.765 432.607 159.923 432.607 163.592C432.607 167.176 432.65 170.547 432.735 173.704L439.135 174.984V181H405.215ZM422.239 107.656C419.252 107.656 416.692 106.717 414.559 104.84C412.426 102.877 411.359 100.445 411.359 97.544C411.359 94.5573 412.426 92.1253 414.559 90.248C416.692 88.2853 419.252 87.304 422.239 87.304C425.226 87.304 427.786 88.2853 429.919 90.248C432.052 92.1253 433.119 94.5573 433.119 97.544C433.119 100.445 432.052 102.877 429.919 104.84C427.786 106.717 425.226 107.656 422.239 107.656ZM490.771 182.408L490.003 171.656C487.272 175.24 484.158 178.013 480.659 179.976C477.16 181.939 473.363 182.92 469.267 182.92C463.806 182.92 459.411 181.213 456.083 177.8C452.755 174.301 451.134 168.328 451.219 159.88L451.731 128.648L444.307 126.984V121.608L470.419 117.896L472.467 119.304L471.827 137.352V160.008C471.827 163.933 472.424 166.664 473.619 168.2C474.899 169.736 476.606 170.504 478.739 170.504C480.531 170.504 482.366 169.949 484.243 168.84C486.206 167.731 488.04 166.365 489.747 164.744L490.259 128.52L483.219 126.984V121.992L508.691 117.896L510.739 119.304L510.355 137.352V173.704L517.011 175.112V181.128L490.771 182.408ZM523.209 181V174.984L530.121 173.448C530.206 170.376 530.249 167.048 530.249 163.464C530.249 159.88 530.249 156.765 530.249 154.12V146.696C530.249 143.197 530.206 140.509 530.121 138.632C530.121 136.669 530.036 134.408 529.865 131.848L522.057 130.696V125.704L547.273 117.128L549.577 118.536L550.345 127.752C553.332 124.253 556.446 121.608 559.689 119.816C563.017 118.024 566.558 117.128 570.313 117.128C579.102 117.128 584.777 120.925 587.337 128.52C590.836 124.253 594.206 121.309 597.449 119.688C600.777 117.981 604.276 117.128 607.945 117.128C614.43 117.128 619.166 119.005 622.153 122.76C625.14 126.515 626.633 132.189 626.633 139.784V154.12C626.633 156.851 626.633 160.008 626.633 163.592C626.633 167.176 626.676 170.504 626.761 173.576L633.161 174.984V181H600.137V174.984L606.409 173.448C606.494 170.376 606.537 167.091 606.537 163.592C606.537 160.008 606.537 156.851 606.537 154.12V141.704C606.537 136.925 605.982 133.725 604.873 132.104C603.764 130.397 601.886 129.544 599.241 129.544C595.657 129.544 592.073 131.08 588.489 134.152C588.574 134.92 588.617 135.731 588.617 136.584C588.702 137.352 588.745 138.205 588.745 139.144V154.12C588.745 156.936 588.745 160.136 588.745 163.72C588.745 167.219 588.788 170.547 588.873 173.704L594.889 174.984V181H561.865V174.984L568.521 173.448C568.606 170.376 568.649 167.091 568.649 163.592C568.649 160.008 568.649 156.851 568.649 154.12V141.832C568.649 137.309 568.094 134.152 566.985 132.36C565.961 130.483 564.041 129.544 561.225 129.544C559.433 129.544 557.641 129.971 555.849 130.824C554.057 131.677 552.35 132.787 550.729 134.152V154.12C550.729 156.765 550.729 159.923 550.729 163.592C550.729 167.176 550.772 170.547 550.857 173.704L556.873 174.984V181H523.209Z" fill="#007DFC"/>
<path d="M64.2625 20.4518C65.3778 18.7469 65.5028 16.4883 64.384 14.6263C62.8277 12.0362 59.4651 11.1978 56.875 12.7541C54.2849 14.3104 53.4466 17.6729 55.0029 20.263C56.1372 22.1508 58.2236 23.0982 60.277 22.8816C64.4607 34.0477 66.1075 43.2392 56.4689 51.2055C56.4689 51.2055 67.8981 63.7618 81.2481 55.7403C94.598 47.7189 87.4611 32.7763 87.4611 32.7763C76.9634 39.8382 67.8683 26.7737 64.2625 20.4518Z" fill="#F19534"/>
<path d="M25.7462 43.5947C23.7172 43.7791 21.6644 42.829 20.5456 40.967C18.9893 38.3769 19.8277 35.0144 22.4178 33.4581C25.0079 31.9018 28.3704 32.7402 29.9266 35.3303C31.0609 37.2181 30.918 39.505 29.7627 41.2164C37.6577 50.1526 45.0002 55.9218 56.5591 51.1513C56.5591 51.1513 62.2799 67.1376 48.9299 75.1591C35.5799 83.1805 25.7473 69.8665 25.7473 69.8665C36.9007 63.9103 29.6354 49.7464 25.7462 43.5947Z" fill="#F19534"/>
<path d="M81.0677 55.8487C81.1257 55.8139 81.1876 55.7854 81.2455 55.7506C84.9245 53.5401 87.042 50.8033 88.1837 48.0039L81.0677 55.8487Z" fill="#FFCA28"/>
<path d="M78.2733 7.69244C75.9537 8.69168 75.132 11.9652 76.4384 14.986C77.2557 16.8714 78.7054 18.2189 80.2449 18.7232L82.5506 26.0632C82.5506 26.0632 89.2876 42.6315 79.1386 52.7986C71.0262 60.9263 57.0633 45.5253 52.9816 40.6293C54.2565 38.6356 54.3902 36.0122 53.0855 33.8409C51.2544 30.7933 47.304 29.8084 44.2564 31.6395C41.2089 33.4707 40.224 37.4211 42.0551 40.4686C43.3675 42.6528 45.7775 43.7741 48.1609 43.5522C50.6989 49.2793 57.9283 67.937 46.5588 72.3658C35.0152 76.8552 19.8589 61.9784 15.9219 57.8196C16.5589 56.0339 16.1694 53.795 14.7387 51.9976C12.681 49.4194 9.25671 48.7409 7.08831 50.4735C4.91981 52.2061 4.83312 55.6958 6.88697 58.2675C8.38089 60.1409 10.6026 61.0071 12.536 60.6784L51.3269 106.673C51.3269 106.673 61.8738 108.027 82.6526 95.5414C103.431 83.0563 107.188 73.1086 107.188 73.1086L84.7261 17.1181C85.6352 15.6247 85.7383 13.4319 84.8424 11.357C83.5384 8.32591 80.5996 6.68932 78.2733 7.69244Z" fill="#FFCA28"/>
<path d="M64.3471 78.7072C67.8071 84.4656 75.1992 84.9223 77.6529 79.5293C78.7916 77.0264 78.5039 73.8383 76.8981 71.1658C73.4381 65.4074 66.0461 64.9506 63.5924 70.3437C62.4536 72.8465 62.7414 76.0347 64.3471 78.7072Z" fill="#26A69A"/>
<path d="M67.2391 69.3053C67.6465 69.4288 68.1637 69.7932 68.2805 71.0385C68.3973 72.2837 66.6833 75.0937 66.3846 75.6327C66.0896 76.1782 65.7133 76.2377 65.5057 76.2134C64.504 76.0786 64.0262 74.6995 64.0152 73.6889C63.9842 71.5065 64.9724 68.6415 67.2391 69.3053Z" fill="#69F0AE"/>
<path d="M71.835 78.0051C71.3315 78.7724 69.6288 81.2073 71.135 81.9772C72.0234 82.4342 73.1435 82.1822 74.0237 81.706C74.9038 81.2297 75.5853 80.4519 76.1094 79.6021C78.5948 75.5657 75.9347 70.4819 75.0079 70.5301C74.054 70.5771 74.1644 71.8701 74.0462 72.5198C73.6814 74.4666 72.9168 76.3466 71.835 78.0051Z" fill="#00796B"/>
<path d="M101.512 48.0457C99.1758 41.8815 94.6026 42.7352 94.6026 42.7352C94.6026 42.7352 91.9297 43.7449 94.5548 50.6824C97.1761 57.6135 99.849 56.6038 99.849 56.6038C99.849 56.6038 103.841 54.2139 101.512 48.0457Z" fill="#26A69A"/>
<path d="M96.8142 43.9933C98.3951 44.6394 98.3991 46.9958 97.4105 49.1596C97.1195 49.7991 96.3849 50.0652 96.118 49.8397C95.3595 49.1905 94.9219 48.1995 94.8143 47.203C94.4785 44.2216 96.0135 43.6676 96.8142 43.9933Z" fill="#69F0AE"/>
<path d="M31.815 90.1517C27.4664 85.2056 30.3697 81.5582 30.3697 81.5582C30.3697 81.5582 32.5161 79.6722 37.4092 85.2471C42.2984 90.8154 40.152 92.7014 40.152 92.7014C40.152 92.7014 36.1612 95.1081 31.815 90.1517Z" fill="#26A69A"/>
<path d="M32.6508 82.7569C33.9014 82.8825 34.0541 83.9394 33.7557 84.9168C33.4213 86.0385 33.2994 87.1201 33.1287 88.2662C33.1018 88.4403 33.0697 88.6349 32.9344 88.7601C32.6767 89.0026 32.2564 88.843 31.9855 88.6111C31.2207 87.9658 30.6993 86.9812 30.6625 85.9861C30.5538 83.1489 32.1649 82.707 32.6508 82.7569Z" fill="#69F0AE"/>
<path d="M93.0862 60.4393C94.1631 63.2385 93.1905 66.2169 90.9054 67.0988C88.6204 67.9807 87.04 65.9926 85.9632 63.1935C84.8863 60.3942 84.7197 57.8548 86.9983 56.9768C89.2833 56.0949 92.0133 57.6465 93.0862 60.4393Z" fill="#F44336"/>
<path d="M48.2686 87.3685C50.2346 89.6334 53.321 90.1729 55.1725 88.5694C57.0239 86.9659 56.0104 84.6371 54.0445 82.3721C52.0784 80.1072 49.9145 78.7679 48.0695 80.3675C46.2245 81.9672 46.3129 85.1061 48.2686 87.3685Z" fill="#F44336"/>
<path d="M50.2503 83.8802C50.0974 84.6912 49.5893 86.4433 48.6956 85.8754C47.4756 85.1002 47.2358 82.9643 47.7791 81.8837C48.3224 80.8031 49.3008 80.8115 49.7214 81.234C50.249 81.7764 50.3826 83.1517 50.2503 83.8802Z" fill="#FFA8A4"/>
<path d="M87.8828 63.4693C87.1869 63.756 85.7959 61.6015 86.4722 58.845C86.7949 57.5286 88.556 57.8034 89.0532 59.3023C89.5247 60.729 89.1574 62.9491 87.8828 63.4693Z" fill="#FFA8A4"/>
<path d="M103.266 64.0127C100.568 68.2646 94.8084 78.7317 78.4625 88.5534C62.1165 98.375 50.1706 98.5463 45.1499 98.9323C45.1499 98.9323 44.2098 100.506 44.6743 101.279L48.2399 107.213C48.716 108.005 49.5724 108.482 50.4992 108.477C54.583 108.444 66.2949 107.124 83.4398 96.8224C100.585 86.5207 107.248 76.7992 109.195 73.2092C109.634 72.3929 109.616 71.4132 109.139 70.6207L105.574 64.6867C105.096 63.9213 103.266 64.0127 103.266 64.0127Z" fill="#FFCA28"/>
<path d="M63.3442 99.0755C65.3612 98.3459 66.0017 98.1714 66.4833 99.2502C67.4205 101.379 63.0337 103.375 60.2214 104.196C54.4086 105.891 52.5544 105.111 51.8073 103.868C51.122 102.727 51.917 102.066 53.5565 101.73C55.5183 101.331 58.5988 100.796 63.3442 99.0755Z" fill="#FFF59D"/>
<path d="M104.048 65.3142C104.048 65.3142 97.0032 77.7726 78.6212 88.8176C60.2393 99.8626 45.9319 100.234 45.9319 100.234" stroke="#F19534" stroke-miterlimit="10" stroke-linecap="round"/>
<path d="M31.4869 64.4886C33.4434 59.9807 32.6498 54.4858 28.6143 47.4048C28.2478 46.7656 28.3159 46.4703 28.6341 46.2265C29.147 45.8394 29.5353 46.2813 29.7417 46.6396C34.1165 54.2709 35.9866 59.5575 33.7802 64.4962C33.6708 64.7373 32.8248 66.3505 31.921 66.1306C30.8496 65.8799 31.3607 64.7748 31.4869 64.4886Z" fill="#FFCA28"/>
<path d="M21.4504 40.6777C20.6401 39.5772 19.6487 37.3142 22.1361 34.5217C22.8652 33.7066 23.6826 33.8118 23.9908 34.0913C24.7596 34.787 24.2135 35.5711 23.9378 35.8858C22.043 38.0591 22.6316 39.3014 22.5974 40.3392C22.5633 41.3769 21.702 41.0088 21.4504 40.6777Z" fill="#FFCA28"/>
<path d="M63.5782 43.1016C65.0242 38.4883 65.2329 34.18 62.3817 26.3699C62.1325 25.6778 62.2122 25.4019 62.555 25.2135C63.1104 24.8973 63.442 25.3908 63.5931 25.7735C66.9292 33.9237 67.1179 36.7041 65.8407 43.2329C65.6955 43.9691 64.9046 45.0318 64.0138 44.8918C63.2119 44.7686 63.4007 43.6818 63.5782 43.1016Z" fill="#FFCA28"/>
<path d="M55.9296 20.0393C55.1193 18.939 54.1279 16.6759 56.6154 13.8835C57.3445 13.0683 58.1618 13.1735 58.4701 13.453C59.2388 14.1487 58.6927 14.9328 58.4171 15.2475C56.5222 17.4208 57.1108 18.6631 57.0767 19.7008C57.049 20.7347 56.1812 20.3704 55.9296 20.0393Z" fill="#FFCA28"/>
<path d="M42.9999 76.9069C33.4728 78.0099 25.9462 70.4748 22.4624 67.3329C22.002 66.9168 21.7889 66.3872 22.2049 65.9267C22.621 65.4662 23.1213 65.6129 23.5882 66.0251C26.115 68.3039 35.0183 75.6345 43.4326 74.1828C44.0448 74.078 45.1006 74.0838 45.1657 75.1408C45.2023 75.8291 44.5338 76.7306 42.9999 76.9069Z" fill="#FFF59D"/>
<path d="M12.6246 53.9519C11.8147 53.4213 11.2407 52.8016 8.78389 53.1641C8.16388 53.256 7.5604 52.996 7.38601 52.3993C7.21162 51.8026 7.49477 51.1062 8.3196 50.786C11.0003 49.7453 13.0113 51.8955 13.6293 52.6905C14.2214 53.4572 13.4409 54.4786 12.6246 53.9519Z" fill="#FFF59D"/>
<path d="M85.06 51.6347C90.5065 43.7406 87.3869 33.5575 86.2483 29.0065C86.0971 28.4046 85.7295 27.9678 85.1276 28.119C84.5256 28.2702 84.4202 28.7807 84.565 29.3865C85.3909 32.6873 87.6836 43.99 82.4515 50.7378C82.0716 51.2292 81.581 52.1641 82.4837 52.7179C83.0743 53.0733 84.1842 52.9063 85.06 51.6347Z" fill="#FFF59D"/>
<path d="M79.0521 14.0382C78.9638 13.074 78.6862 12.2762 80.1597 10.2772C80.5319 9.77288 80.5857 9.11799 80.1406 8.68392C79.6956 8.24984 78.9479 8.17284 78.278 8.7508C76.1006 10.6291 77.0549 13.4142 77.4667 14.3331C77.8656 15.2159 79.1404 15.0024 79.0521 14.0382Z" fill="#FFF59D"/>
<path d="M44.6182 39.0426C44.5273 38.001 44.5547 36.4851 46.5246 34.6701C47.2796 33.9709 47.3063 33.4462 46.8883 32.9257C46.0252 31.8396 44.6065 32.806 43.9263 33.469C41.6563 35.6747 42.4792 38.3723 42.9271 39.366C43.348 40.3145 44.7156 40.0802 44.6182 39.0426Z" fill="#FFF59D"/>
</svg>
