<svg width="281" height="48" viewBox="0 0 281 48" fill="none" xmlns="http://www.w3.org/2000/svg">
<g filter="url(#filter0_f_6_5)">
<rect x="4" y="4" width="40" height="40" rx="20" fill="#007AFF"/>
<path d="M24 40.6667C33.2047 40.6667 40.6667 33.2048 40.6667 24C40.6667 14.7953 33.2047 7.33334 24 7.33334C14.7952 7.33334 7.33333 14.7953 7.33333 24C7.33333 33.2048 14.7952 40.6667 24 40.6667Z" stroke="#007AFF" stroke-width="4" stroke-linecap="round" stroke-linejoin="round"/>
</g>
<path d="M31.5001 16.5041L23.5001 10.675L23.5001 13.975C16.4999 15.625 16.4999 23.325 16.4999 23.325C16.4999 23.325 19.4999 18.925 23.5001 19.475L23.5001 22.885L31.5001 16.5041Z" stroke="#FFFBFB" stroke-linejoin="round"/>
<path d="M16.4999 32.4508L24.4999 37.75L24.4999 34.75C31.5001 33.25 31.5001 26.25 31.5001 26.25C31.5001 26.25 28.5001 30.25 24.4999 29.75L24.4999 26.65L16.4999 32.4508Z" stroke="#FFFBFB" stroke-linejoin="round"/>
<path d="M58.12 36.352C56.2213 36.352 54.568 36.064 53.16 35.488C51.7733 34.912 50.504 34.0053 49.352 32.768L52.968 29.12C53.7573 29.952 54.6 30.592 55.496 31.04C56.392 31.4667 57.4053 31.68 58.536 31.68C59.496 31.68 60.232 31.52 60.744 31.2C61.2773 30.8587 61.544 30.4 61.544 29.824C61.544 29.2907 61.352 28.8533 60.968 28.512C60.584 28.1493 60.072 27.84 59.432 27.584C58.8133 27.3067 58.12 27.0507 57.352 26.816C56.6053 26.56 55.848 26.2613 55.08 25.92C54.3333 25.5573 53.64 25.12 53 24.608C52.3813 24.096 51.88 23.456 51.496 22.688C51.112 21.92 50.92 20.9707 50.92 19.84C50.92 18.3893 51.2613 17.152 51.944 16.128C52.648 15.104 53.6187 14.3147 54.856 13.76C56.0933 13.2053 57.5333 12.928 59.176 12.928C60.8187 12.928 62.3333 13.2053 63.72 13.76C65.1067 14.3147 66.248 15.0827 67.144 16.064L63.496 19.68C62.8133 18.9973 62.12 18.4853 61.416 18.144C60.712 17.8027 59.944 17.632 59.112 17.632C58.3227 17.632 57.704 17.7707 57.256 18.048C56.808 18.3253 56.584 18.72 56.584 19.232C56.584 19.744 56.776 20.16 57.16 20.48C57.544 20.8 58.0453 21.088 58.664 21.344C59.304 21.5787 59.9973 21.824 60.744 22.08C61.512 22.336 62.2693 22.6347 63.016 22.976C63.7627 23.3173 64.4453 23.7547 65.064 24.288C65.704 24.8213 66.216 25.4933 66.6 26.304C66.984 27.1147 67.176 28.096 67.176 29.248C67.176 31.5093 66.376 33.2587 64.776 34.496C63.1973 35.7333 60.9787 36.352 58.12 36.352ZM70.0785 36V13.312H75.8065V36H70.0785ZM83.9665 36V13.312H89.6945V36H83.9665ZM73.3425 26.784V21.984H86.0465V26.784H73.3425ZM92.0708 36L100.871 13.312H106.407L115.111 36H109.127L102.567 16.928H104.647L97.9268 36H92.0708ZM97.4148 32.032V27.488H109.927V32.032H97.4148ZM121.779 26.816V22.72H126.099C127.037 22.72 127.752 22.496 128.243 22.048C128.755 21.5787 129.011 20.9493 129.011 20.16C129.011 19.392 128.755 18.7733 128.243 18.304C127.752 17.8133 127.037 17.568 126.099 17.568H121.779V13.312H126.899C128.435 13.312 129.779 13.6 130.931 14.176C132.104 14.752 133.021 15.5413 133.683 16.544C134.344 17.5467 134.675 18.72 134.675 20.064C134.675 21.408 134.333 22.592 133.651 23.616C132.989 24.6187 132.061 25.408 130.867 25.984C129.672 26.5387 128.275 26.816 126.675 26.816H121.779ZM117.235 36V13.312H122.963V36H117.235ZM129.523 36L122.931 26.272L128.083 25.024L136.147 36H129.523ZM138.016 36V13.312H143.744V36H138.016ZM142.56 36V31.168H154.848V36H142.56ZM142.56 26.784V22.08H153.696V26.784H142.56ZM142.56 18.144V13.312H154.656V18.144H142.56ZM163.985 36V13.312H167.985L169.713 17.952V36H163.985ZM179.633 36L166.385 19.168L167.985 13.312L181.265 30.144L179.633 36ZM179.633 36L178.161 31.232V13.312H183.889V36H179.633ZM187.922 36V13.312H193.65V36H187.922ZM192.466 36V31.168H204.754V36H192.466ZM192.466 26.784V22.08H203.602V26.784H192.466ZM192.466 18.144V13.312H204.562V18.144H192.466ZM222.065 36L215.921 25.888H215.345L206.705 13.312H213.521L219.537 22.848H220.113L228.785 36H222.065ZM206.321 36L214.577 23.872L219.089 26.016L212.849 36H206.321ZM220.241 25.376L215.729 23.2L221.841 13.312H228.369L220.241 25.376ZM235.395 36V13.472H241.123V36H235.395ZM228.451 18.24V13.312H248.067V18.24H228.451ZM251.802 36.352C250.864 36.352 250.096 36.0427 249.498 35.424C248.901 34.8053 248.602 34.0373 248.602 33.12C248.602 32.2027 248.901 31.4347 249.498 30.816C250.096 30.1973 250.864 29.888 251.802 29.888C252.72 29.888 253.477 30.1973 254.074 30.816C254.672 31.4347 254.97 32.2027 254.97 33.12C254.97 34.0373 254.672 34.8053 254.074 35.424C253.477 36.0427 252.72 36.352 251.802 36.352Z" fill="#007AFF"/>
<defs>
<filter id="filter0_f_6_5" x="0" y="0" width="48" height="48" filterUnits="userSpaceOnUse" color-interpolation-filters="sRGB">
<feFlood flood-opacity="0" result="BackgroundImageFix"/>
<feBlend mode="normal" in="SourceGraphic" in2="BackgroundImageFix" result="shape"/>
<feGaussianBlur stdDeviation="2" result="effect1_foregroundBlur_6_5"/>
</filter>
</defs>
</svg>
